<mxfile host="app.diagrams.net" modified="2022-07-07T02:54:48.051Z" agent="5.0 (Windows NT 10.0; WOW64) AppleWebKit/537.36 (KHTML, like Gecko) Chrome/99.0.4844.51 Safari/537.36" etag="xwTbNtLMAu1Eo29OBlqk" version="20.0.4" type="github">
  <diagram id="oXBvZXvexiwrkzWsnBvb" name="Page-1">
    <mxGraphModel dx="1808" dy="526" grid="1" gridSize="10" guides="1" tooltips="1" connect="1" arrows="1" fold="1" page="1" pageScale="1" pageWidth="827" pageHeight="1169" math="0" shadow="0">
      <root>
        <mxCell id="0" />
        <mxCell id="1" parent="0" />
        <mxCell id="m_Hqk6z3Pa_uy8yEo5xD-33" style="edgeStyle=orthogonalEdgeStyle;rounded=0;orthogonalLoop=1;jettySize=auto;html=1;" edge="1" parent="1" source="m_Hqk6z3Pa_uy8yEo5xD-4" target="m_Hqk6z3Pa_uy8yEo5xD-27">
          <mxGeometry relative="1" as="geometry">
            <Array as="points">
              <mxPoint x="100" y="150" />
              <mxPoint x="100" y="150" />
            </Array>
          </mxGeometry>
        </mxCell>
        <mxCell id="m_Hqk6z3Pa_uy8yEo5xD-44" style="edgeStyle=orthogonalEdgeStyle;rounded=0;orthogonalLoop=1;jettySize=auto;html=1;" edge="1" parent="1" source="m_Hqk6z3Pa_uy8yEo5xD-4" target="m_Hqk6z3Pa_uy8yEo5xD-25">
          <mxGeometry relative="1" as="geometry">
            <Array as="points">
              <mxPoint x="180" y="270" />
              <mxPoint x="180" y="270" />
            </Array>
          </mxGeometry>
        </mxCell>
        <mxCell id="m_Hqk6z3Pa_uy8yEo5xD-4" value="" style="shape=partialRectangle;whiteSpace=wrap;html=1;top=0;bottom=0;fillColor=none;" vertex="1" parent="1">
          <mxGeometry x="260" y="40" width="200" height="390" as="geometry" />
        </mxCell>
        <mxCell id="m_Hqk6z3Pa_uy8yEo5xD-1" value="" style="shape=datastore;whiteSpace=wrap;html=1;" vertex="1" parent="1">
          <mxGeometry x="320" y="190" width="60" height="60" as="geometry" />
        </mxCell>
        <mxCell id="m_Hqk6z3Pa_uy8yEo5xD-6" value="" style="shape=doubleArrow;whiteSpace=wrap;html=1;" vertex="1" parent="1">
          <mxGeometry x="411" y="210" width="100" height="20" as="geometry" />
        </mxCell>
        <mxCell id="m_Hqk6z3Pa_uy8yEo5xD-7" value="DataCenter" style="text;html=1;strokeColor=none;fillColor=none;align=center;verticalAlign=middle;whiteSpace=wrap;rounded=0;" vertex="1" parent="1">
          <mxGeometry x="320" y="150" width="60" height="30" as="geometry" />
        </mxCell>
        <mxCell id="m_Hqk6z3Pa_uy8yEo5xD-9" value="" style="group" vertex="1" connectable="0" parent="1">
          <mxGeometry x="539" y="150" width="120" height="110" as="geometry" />
        </mxCell>
        <mxCell id="m_Hqk6z3Pa_uy8yEo5xD-5" value="" style="ellipse;shape=cloud;whiteSpace=wrap;html=1;" vertex="1" parent="m_Hqk6z3Pa_uy8yEo5xD-9">
          <mxGeometry y="30" width="120" height="80" as="geometry" />
        </mxCell>
        <mxCell id="m_Hqk6z3Pa_uy8yEo5xD-8" value="Server" style="text;html=1;align=center;verticalAlign=middle;resizable=0;points=[];autosize=1;strokeColor=none;fillColor=none;" vertex="1" parent="m_Hqk6z3Pa_uy8yEo5xD-9">
          <mxGeometry x="30" width="60" height="30" as="geometry" />
        </mxCell>
        <mxCell id="m_Hqk6z3Pa_uy8yEo5xD-31" style="edgeStyle=orthogonalEdgeStyle;rounded=0;orthogonalLoop=1;jettySize=auto;html=1;" edge="1" parent="1" source="m_Hqk6z3Pa_uy8yEo5xD-25">
          <mxGeometry relative="1" as="geometry">
            <mxPoint x="260" y="100" as="targetPoint" />
            <Array as="points">
              <mxPoint x="260" y="100" />
            </Array>
          </mxGeometry>
        </mxCell>
        <mxCell id="m_Hqk6z3Pa_uy8yEo5xD-40" style="edgeStyle=orthogonalEdgeStyle;rounded=0;orthogonalLoop=1;jettySize=auto;html=1;entryX=0;entryY=0.5;entryDx=0;entryDy=0;" edge="1" parent="1" source="m_Hqk6z3Pa_uy8yEo5xD-25" target="m_Hqk6z3Pa_uy8yEo5xD-4">
          <mxGeometry relative="1" as="geometry" />
        </mxCell>
        <mxCell id="m_Hqk6z3Pa_uy8yEo5xD-45" style="edgeStyle=orthogonalEdgeStyle;rounded=0;orthogonalLoop=1;jettySize=auto;html=1;" edge="1" parent="1" source="m_Hqk6z3Pa_uy8yEo5xD-25" target="m_Hqk6z3Pa_uy8yEo5xD-27">
          <mxGeometry relative="1" as="geometry">
            <Array as="points">
              <mxPoint y="290" />
              <mxPoint y="290" />
            </Array>
          </mxGeometry>
        </mxCell>
        <mxCell id="m_Hqk6z3Pa_uy8yEo5xD-25" value="" style="line;strokeWidth=2;direction=south;html=1;" vertex="1" parent="1">
          <mxGeometry x="80" y="40" width="10" height="390" as="geometry" />
        </mxCell>
        <mxCell id="m_Hqk6z3Pa_uy8yEo5xD-26" value="Component" style="rounded=1;whiteSpace=wrap;html=1;" vertex="1" parent="1">
          <mxGeometry x="-280" y="180" width="120" height="60" as="geometry" />
        </mxCell>
        <mxCell id="m_Hqk6z3Pa_uy8yEo5xD-29" style="edgeStyle=orthogonalEdgeStyle;rounded=0;orthogonalLoop=1;jettySize=auto;html=1;" edge="1" parent="1" source="m_Hqk6z3Pa_uy8yEo5xD-27" target="m_Hqk6z3Pa_uy8yEo5xD-25">
          <mxGeometry relative="1" as="geometry">
            <Array as="points">
              <mxPoint x="10" y="80" />
              <mxPoint x="10" y="80" />
            </Array>
          </mxGeometry>
        </mxCell>
        <mxCell id="m_Hqk6z3Pa_uy8yEo5xD-38" style="edgeStyle=orthogonalEdgeStyle;rounded=0;orthogonalLoop=1;jettySize=auto;html=1;" edge="1" parent="1" source="m_Hqk6z3Pa_uy8yEo5xD-27" target="m_Hqk6z3Pa_uy8yEo5xD-25">
          <mxGeometry relative="1" as="geometry">
            <Array as="points">
              <mxPoint x="10" y="200" />
              <mxPoint x="10" y="200" />
            </Array>
          </mxGeometry>
        </mxCell>
        <mxCell id="m_Hqk6z3Pa_uy8yEo5xD-48" style="edgeStyle=orthogonalEdgeStyle;rounded=0;orthogonalLoop=1;jettySize=auto;html=1;" edge="1" parent="1" source="m_Hqk6z3Pa_uy8yEo5xD-27" target="m_Hqk6z3Pa_uy8yEo5xD-25">
          <mxGeometry relative="1" as="geometry">
            <Array as="points">
              <mxPoint x="10" y="340" />
              <mxPoint x="10" y="340" />
            </Array>
          </mxGeometry>
        </mxCell>
        <mxCell id="m_Hqk6z3Pa_uy8yEo5xD-27" value="" style="line;strokeWidth=2;direction=south;html=1;" vertex="1" parent="1">
          <mxGeometry x="-150" y="30" width="10" height="390" as="geometry" />
        </mxCell>
        <mxCell id="m_Hqk6z3Pa_uy8yEo5xD-30" value="create" style="text;html=1;align=center;verticalAlign=middle;resizable=0;points=[];autosize=1;strokeColor=none;fillColor=none;" vertex="1" parent="1">
          <mxGeometry x="-65" y="55" width="60" height="30" as="geometry" />
        </mxCell>
        <mxCell id="m_Hqk6z3Pa_uy8yEo5xD-32" value="send ModelConfig" style="text;html=1;align=center;verticalAlign=middle;resizable=0;points=[];autosize=1;strokeColor=none;fillColor=none;" vertex="1" parent="1">
          <mxGeometry x="120" y="75" width="120" height="30" as="geometry" />
        </mxCell>
        <mxCell id="m_Hqk6z3Pa_uy8yEo5xD-34" value="return dataSender" style="text;html=1;align=center;verticalAlign=middle;resizable=0;points=[];autosize=1;strokeColor=none;fillColor=none;" vertex="1" parent="1">
          <mxGeometry x="40" y="120" width="120" height="30" as="geometry" />
        </mxCell>
        <mxCell id="m_Hqk6z3Pa_uy8yEo5xD-39" value="fetch" style="text;html=1;align=center;verticalAlign=middle;resizable=0;points=[];autosize=1;strokeColor=none;fillColor=none;" vertex="1" parent="1">
          <mxGeometry x="-60" y="175" width="50" height="30" as="geometry" />
        </mxCell>
        <mxCell id="m_Hqk6z3Pa_uy8yEo5xD-41" value="dataSender.update" style="text;html=1;align=center;verticalAlign=middle;resizable=0;points=[];autosize=1;strokeColor=none;fillColor=none;" vertex="1" parent="1">
          <mxGeometry x="120" y="210" width="120" height="30" as="geometry" />
        </mxCell>
        <mxCell id="m_Hqk6z3Pa_uy8yEo5xD-46" value="dataSender.trigger(&#39;change&#39;)" style="text;html=1;align=center;verticalAlign=middle;resizable=0;points=[];autosize=1;strokeColor=none;fillColor=none;" vertex="1" parent="1">
          <mxGeometry x="-110" y="260" width="170" height="30" as="geometry" />
        </mxCell>
        <mxCell id="m_Hqk6z3Pa_uy8yEo5xD-47" value="return data" style="text;html=1;align=center;verticalAlign=middle;resizable=0;points=[];autosize=1;strokeColor=none;fillColor=none;" vertex="1" parent="1">
          <mxGeometry x="130" y="249" width="80" height="30" as="geometry" />
        </mxCell>
        <mxCell id="m_Hqk6z3Pa_uy8yEo5xD-49" value="update" style="text;html=1;align=center;verticalAlign=middle;resizable=0;points=[];autosize=1;strokeColor=none;fillColor=none;" vertex="1" parent="1">
          <mxGeometry x="-70" y="318" width="60" height="30" as="geometry" />
        </mxCell>
      </root>
    </mxGraphModel>
  </diagram>
</mxfile>
